<?xml version="1.0" standalone="no"?>
<!DOCTYPE svg PUBLIC "-//W3C//DTD SVG 20010904//EN"
 "http://www.w3.org/TR/2001/REC-SVG-20010904/DTD/svg10.dtd">
<svg version="1.0" xmlns="http://www.w3.org/2000/svg"
 width="1200.000000pt" height="1200.000000pt" viewBox="0 0 1200.000000 1200.000000"
 preserveAspectRatio="xMidYMid meet">
<metadata>
Created by potrace 1.14, written by Peter Selinger 2001-2017
</metadata>
<g transform="translate(0.000000,1200.000000) scale(0.100000,-0.100000)"
fill="#000000" stroke="none">
<path d="M0 6000 l0 -6000 6000 0 6000 0 0 6000 0 6000 -6000 0 -6000 0 0
-6000z m8125 3390 l235 -235 0 -1900 0 -1900 -238 -238 -237 -237 -1898 0
-1898 0 -234 238 -234 237 -1 1900 0 1900 233 233 232 232 860 2 c473 2 1329
3 1902 3 l1043 0 235 -235z m-3795 -5285 c0 -107 4 -195 8 -195 5 0 17 10 28
21 73 82 262 81 345 -2 66 -66 72 -98 77 -421 l4 -288 -111 0 -110 0 -3 276
-3 276 -28 24 c-50 42 -169 27 -197 -25 -6 -12 -10 -122 -10 -285 l0 -266
-105 0 -105 0 0 540 0 540 105 0 105 0 0 -195z m-607 135 l98 0 -3 -87 -3 -88
-152 -3 -153 -3 0 -419 0 -420 -115 0 -115 0 0 420 0 420 -150 0 -150 0 0 90
0 89 153 4 c83 2 229 2 322 1 94 -2 214 -4 268 -4z m2917 -7 c4 -4 88 -226
188 -493 99 -267 184 -493 187 -502 7 -17 -3 -18 -112 -18 l-119 0 -33 100
-32 100 -183 0 -182 0 -33 -100 -32 -100 -119 0 -118 0 48 128 c26 70 111 299
190 509 l142 382 31 4 c45 7 169 0 177 -10z m-1060 -254 c90 -22 174 -109 205
-211 7 -26 17 -90 21 -143 l7 -95 -242 0 c-228 0 -241 -1 -241 -19 0 -24 38
-79 72 -104 58 -43 190 -31 252 23 l33 30 52 -60 51 -59 -36 -35 c-21 -20 -62
-48 -93 -64 -52 -25 -65 -27 -176 -27 -106 0 -126 3 -167 24 -75 37 -134 95
-170 169 -32 64 -33 71 -33 187 1 149 22 212 98 292 93 99 216 130 367 92z
m2237 -16 c93 -44 144 -131 164 -285 27 -198 -48 -389 -176 -449 -80 -37 -215
-20 -272 33 l-23 21 0 -176 0 -177 -105 0 -105 0 0 525 0 526 98 -3 97 -3 3
-33 3 -33 39 35 c24 21 54 37 77 41 21 4 45 7 53 9 35 6 98 -7 147 -31z m1020
0 c93 -44 144 -131 164 -285 27 -198 -48 -389 -176 -449 -80 -37 -215 -20
-272 33 l-23 21 0 -176 0 -177 -105 0 -105 0 0 525 0 526 98 -3 97 -3 3 -33 3
-33 39 35 c24 21 54 37 77 41 21 4 45 7 53 9 35 6 98 -7 147 -31z m-6317
-1683 c0 -44 3 -80 8 -80 4 0 16 7 26 15 25 19 79 19 115 0 83 -43 81 -265 -4
-303 -46 -21 -116 -11 -136 21 -4 5 -10 0 -14 -12 -4 -15 -15 -21 -36 -21
l-29 0 0 230 0 230 35 0 35 0 0 -80z m1930 -150 l0 -230 -30 0 c-20 0 -30 5
-30 15 0 19 -11 19 -36 0 -10 -8 -38 -15 -60 -15 -77 0 -124 62 -124 165 0 31
6 70 14 89 29 68 101 95 166 61 l30 -16 0 81 0 80 35 0 35 0 0 -230z m3730 0
l0 -230 -30 0 -30 0 0 230 0 230 30 0 30 0 0 -230z m285 200 c4 -12 1 -27 -5
-35 -27 -33 -78 -5 -65 35 4 14 15 20 35 20 20 0 31 -6 35 -20z m1520 0 c4
-12 1 -27 -5 -35 -27 -33 -78 -5 -65 35 4 14 15 20 35 20 20 0 31 -6 35 -20z
m-8751 -151 c33 -88 63 -162 67 -164 8 -6 6 -10 69 160 26 72 51 138 55 148 5
13 19 17 56 17 l49 0 0 -220 0 -220 -35 0 -35 0 -2 170 -3 170 -64 -170 c-61
-162 -66 -171 -89 -168 -22 3 -31 20 -87 165 -34 90 -64 165 -67 169 -4 3 -4
-71 -1 -165 l6 -171 -37 0 -36 0 0 220 0 220 48 0 47 0 59 -161z m8436 91 c0
-38 2 -40 30 -40 25 0 30 -4 30 -25 0 -21 -5 -25 -30 -25 l-30 0 0 -103 c0
-106 7 -127 42 -127 13 0 18 -8 18 -25 0 -23 -4 -25 -44 -25 -75 0 -85 19 -89
175 -2 95 -3 100 -24 103 -35 5 -32 52 2 52 23 0 25 4 25 40 0 39 1 40 35 40
34 0 35 -1 35 -40z m-7853 -154 c23 -71 38 -105 43 -95 4 8 20 58 36 111 l29
98 37 0 37 0 -61 -172 c-33 -95 -65 -188 -71 -206 -6 -18 -24 -44 -40 -58 -30
-26 -83 -32 -90 -11 -8 25 5 47 29 47 18 0 29 9 41 34 16 34 16 37 -37 188
-29 84 -55 159 -58 166 -3 10 5 13 33 10 l38 -3 34 -109z m1173 92 l0 -21 23
21 c13 12 35 22 50 22 24 0 27 -4 27 -35 0 -24 -4 -33 -13 -29 -17 6 -69 -13
-79 -29 -4 -7 -8 -63 -8 -124 l0 -113 -35 0 -35 0 0 165 0 165 35 0 c29 0 35
-4 35 -22z m460 7 c43 -22 50 -43 50 -147 0 -51 4 -110 9 -130 l9 -38 -34 0
c-20 0 -37 6 -42 16 -9 16 -11 16 -33 0 -13 -9 -43 -16 -67 -16 -103 0 -141
129 -52 175 17 9 56 19 88 23 52 7 57 10 54 32 -4 35 -21 50 -58 50 -23 0 -38
-6 -46 -20 -15 -23 -78 -29 -78 -7 2 60 128 99 200 62z m325 -5 l6 -20 26 20
c31 24 99 27 130 5 32 -22 43 -75 43 -202 l0 -113 -35 0 -35 0 0 120 c0 107
-2 122 -20 140 -11 11 -27 20 -36 20 -19 0 -56 -19 -66 -34 -4 -6 -8 -64 -8
-128 l0 -118 -35 0 -35 0 0 165 0 165 29 0 c21 0 32 -6 36 -20z m1220 0 l6
-20 26 20 c31 24 99 27 130 5 32 -22 43 -75 43 -202 l0 -113 -35 0 -35 0 0
120 c0 107 -2 122 -20 140 -11 11 -27 20 -36 20 -19 0 -56 -19 -66 -34 -4 -6
-8 -64 -8 -128 l0 -118 -35 0 -35 0 0 165 0 165 29 0 c21 0 32 -6 36 -20z
m605 7 c42 -21 71 -75 68 -127 l-3 -45 -92 -1 c-51 -1 -97 -2 -103 -3 -19 -2
-10 -33 19 -62 35 -34 72 -37 117 -10 23 14 35 16 43 8 19 -19 12 -34 -23 -56
-70 -44 -173 -19 -216 51 -26 42 -27 129 -2 178 34 69 126 101 192 67z m294
-4 c3 -10 15 -60 26 -111 12 -51 25 -91 28 -87 4 3 20 52 37 108 28 93 33 102
57 105 21 3 27 -2 32 -25 24 -99 59 -196 66 -183 4 8 18 59 30 113 l22 97 33
0 34 0 -14 -47 c-14 -51 -46 -170 -65 -240 -9 -38 -14 -43 -39 -43 -27 0 -29
4 -61 110 -19 61 -37 110 -41 110 -4 0 -10 -12 -14 -27 -3 -16 -18 -65 -32
-110 -24 -77 -27 -83 -53 -83 -26 0 -28 3 -69 153 -22 84 -41 158 -41 165 0
20 58 15 64 -5z m1016 2 c43 -22 50 -43 50 -147 0 -51 4 -110 9 -130 l9 -38
-34 0 c-20 0 -37 6 -42 16 -9 16 -11 16 -33 0 -13 -9 -43 -16 -67 -16 -103 0
-141 129 -52 175 17 9 56 19 88 23 52 7 57 10 54 32 -4 35 -21 50 -58 50 -23
0 -38 -6 -46 -20 -15 -23 -78 -29 -78 -7 2 60 128 99 200 62z m324 0 c5 -14 9
-14 35 0 97 50 181 -17 181 -144 0 -34 -6 -76 -14 -95 -29 -68 -101 -95 -166
-61 l-30 16 0 -76 0 -75 -35 0 -35 0 0 225 0 225 29 0 c17 0 31 -6 35 -15z
m470 0 c5 -14 9 -14 35 0 97 50 181 -17 181 -144 0 -34 -6 -76 -14 -95 -29
-68 -101 -95 -166 -61 l-30 16 0 -76 0 -75 -35 0 -35 0 0 225 0 225 29 0 c17
0 31 -6 35 -15z m756 -150 l0 -165 -30 0 -30 0 0 165 0 165 30 0 30 0 0 -165z
m410 150 c35 -18 60 -52 60 -82 0 -19 -5 -23 -30 -23 -16 0 -30 5 -30 10 0 19
-48 60 -70 60 -11 0 -32 -11 -45 -25 -22 -21 -25 -33 -25 -90 0 -57 3 -69 25
-90 13 -14 36 -25 50 -25 25 0 65 31 65 50 0 6 14 10 30 10 35 0 40 -21 14
-58 -22 -32 -67 -52 -116 -52 -87 0 -138 61 -138 165 0 69 23 121 64 146 37
23 106 25 146 4z m450 0 c43 -22 50 -43 50 -147 0 -51 4 -110 9 -130 l9 -38
-34 0 c-20 0 -37 6 -42 16 -9 16 -11 16 -33 0 -13 -9 -43 -16 -67 -16 -103 0
-141 129 -52 175 17 9 56 19 88 23 52 7 57 10 54 32 -4 35 -21 50 -58 50 -23
0 -38 -6 -46 -20 -15 -23 -78 -29 -78 -7 2 60 128 99 200 62z m660 -150 l0
-165 -30 0 -30 0 0 165 0 165 30 0 30 0 0 -165z m420 150 c47 -24 75 -81 75
-150 -1 -104 -54 -165 -143 -165 -93 0 -152 61 -152 158 0 79 33 141 85 162
32 14 104 11 135 -5z m325 -5 l6 -20 26 20 c31 24 99 27 130 5 32 -22 43 -75
43 -202 l0 -113 -35 0 -35 0 0 120 c0 107 -2 122 -20 140 -11 11 -27 20 -36
20 -19 0 -56 -19 -66 -34 -4 -6 -8 -64 -8 -128 l0 -118 -35 0 -35 0 0 165 0
165 29 0 c21 0 32 -6 36 -20z"/>
<path d="M4560 7250 l0 -1420 1425 0 1425 0 0 1420 0 1420 -1425 0 -1425 0 0
-1420z"/>
<path d="M6476 3789 c-31 -100 -55 -183 -53 -185 2 -3 56 -3 119 -2 l115 3
-57 178 c-32 98 -60 180 -62 182 -2 3 -30 -77 -62 -176z"/>
<path d="M5398 3805 c-26 -15 -68 -87 -68 -118 0 -16 13 -17 133 -15 l132 3
-3 30 c-5 50 -23 85 -53 100 -35 19 -106 19 -141 0z"/>
<path d="M7558 3804 c-15 -8 -32 -23 -38 -34 -13 -25 -13 -315 0 -341 16 -29
63 -49 116 -49 39 0 51 5 79 33 41 41 55 89 55 187 0 98 -14 146 -55 187 -28
28 -40 33 -81 33 -27 -1 -61 -7 -76 -16z"/>
<path d="M8578 3804 c-15 -8 -32 -23 -38 -34 -13 -25 -13 -315 0 -341 16 -29
63 -49 116 -49 39 0 51 5 79 33 41 41 55 89 55 187 0 98 -14 146 -55 187 -28
28 -40 33 -81 33 -27 -1 -61 -7 -76 -16z"/>
<path d="M2555 2168 c-31 -18 -35 -28 -35 -105 0 -77 10 -98 55 -109 46 -11
81 23 85 86 5 67 0 91 -25 115 -26 27 -49 31 -80 13z"/>
<path d="M4266 2157 c-23 -23 -26 -35 -26 -92 0 -57 3 -69 25 -90 29 -30 68
-32 95 -5 16 16 20 33 20 93 0 83 -10 104 -57 113 -26 5 -37 1 -57 -19z"/>
<path d="M3338 2045 c-52 -29 -31 -95 30 -95 34 0 63 32 65 70 2 33 0 35 -33
37 -19 2 -47 -4 -62 -12z"/>
<path d="M5502 2173 c-13 -5 -42 -55 -42 -73 0 -6 28 -10 70 -10 68 0 70 1 70
25 0 46 -52 77 -98 58z"/>
<path d="M6798 2045 c-52 -29 -31 -95 30 -95 34 0 63 32 65 70 2 33 0 35 -33
37 -19 2 -47 -4 -62 -12z"/>
<path d="M7280 2173 c-30 -11 -40 -37 -40 -110 0 -60 4 -77 20 -93 43 -43 107
-13 119 55 18 103 -29 173 -99 148z"/>
<path d="M7750 2173 c-30 -11 -40 -37 -40 -110 0 -60 4 -77 20 -93 43 -43 107
-13 119 55 18 103 -29 173 -99 148z"/>
<path d="M9208 2045 c-52 -29 -31 -95 30 -95 34 0 63 32 65 70 2 33 0 35 -33
37 -19 2 -47 -4 -62 -12z"/>
<path d="M10292 2173 c-23 -9 -42 -62 -42 -118 0 -46 4 -60 25 -80 45 -46 105
-24 126 44 28 95 -34 184 -109 154z"/>
</g>
</svg>
